<svg xmlns="http://www.w3.org/2000/svg" viewBox="0 0 163.51 60"><defs><style>.cls-1{fill:#f03232;}</style></defs><title>资源 1</title><g id="图层_2" data-name="图层 2"><g id="图层_2-2" data-name="图层 2"><path class="cls-1" d="M75.67,13.34V4.13H91.59l0-3.19h8.66l0,3.19h15.23v9.21h-7.2V9.42H82.88v3.92ZM95.6,11l-1.69,4.33h21.62v5H92L83.7,41.61H75.76L84.2,20.36H75.81v-5h10.4L87.94,11ZM88.72,35.75l5.69-13.06h7.76L94.83,36.55l11.26-.23-1.18-3.25H112l3.1,9.13H108l-.41-1.32-18.83-.07Z"/><path class="cls-1" d="M124.75,42.43V1.71h38.76V42.43Zm23.49-17.28,8.52,6v-24H131.5V26.93h8.16l12.59,8.3h-8.94L131.5,27.16V37.1h25.26V31.4H149l-8.89-6.25Zm-4-15.87h11.17V14l-7.71,5.34L156.4,24h-9.17l-3.55-1.87L141,24h-9l6.61-4.56-6.34-3.38h9.39l1,.55,4.33-3h-6.75l-1.28,1.41h-7.16l6.21-7h7.43Z"/><path class="cls-1" d="M76.11,48.51h1.32v4.78H83V48.51h1.3V59.8H83V54.4H77.43v5.4H76.11Z"/><path class="cls-1" d="M91.78,54.11c0-3.59,2-5.8,4.89-5.8s4.91,2.21,4.91,5.8S99.55,60,96.67,60,91.78,57.72,91.78,54.11Zm8.46,0c0-2.88-1.41-4.67-3.57-4.67s-3.54,1.79-3.54,4.67,1.4,4.76,3.54,4.76S100.24,57,100.24,54.11Z"/><path class="cls-1" d="M109,48.51h1.35l4.39,7.31L116,58.13h.08c-.08-1.12-.18-2.35-.18-3.51V48.51h1.25V59.8h-1.36l-4.35-7.31-1.27-2.31h-.08c.06,1.12.16,2.26.16,3.44V59.8H109Z"/><path class="cls-1" d="M124.65,54.16c0-3.63,2.2-5.85,5.25-5.85a4.53,4.53,0,0,1,3.31,1.37l-.72.84a3.36,3.36,0,0,0-2.55-1.08c-2.41,0-4,1.79-4,4.69s1.43,4.74,4,4.74a3.39,3.39,0,0,0,2.2-.7V55.08h-2.52V54h3.74V58.7a5,5,0,0,1-3.55,1.3C126.77,60,124.65,57.81,124.65,54.16Z"/><path class="cls-1" d="M143.15,49.59h-3.53V48.51H148v1.08h-3.55V59.8h-1.33Z"/><path class="cls-1" d="M155,55.22V48.51h1.31v6.73c0,2.77,1.24,3.63,2.79,3.63S162,58,162,55.24V48.51h1.25v6.71c0,3.59-1.82,4.78-4.1,4.78S155,58.81,155,55.22Z"/><polygon class="cls-1" points="48 0 36 0 36 12 48 12 48 24 48 36 48 48 36 48 36 60 48 60 60 48 60 36 60 24 60 12 48 0"/><polygon class="cls-1" points="12 36 12 24 12 12 24 12 24 0 12 0 0 12 0 24 0 36 0 48 12 60 24 60 24 48 12 48 12 36"/><rect class="cls-1" x="24" y="12" width="12" height="12"/><rect class="cls-1" x="24" y="36" width="12" height="12"/></g></g></svg>